<svg width="397" height="60" viewBox="0 0 397 60" fill="none" xmlns="http://www.w3.org/2000/svg">
<g clip-path="url(#clip0_6208_41013)">
<rect width="60" height="60" rx="12.6667" fill="url(#paint0_linear_6208_41013)"/>
<path d="M24.6396 11.759C25.1041 11.8039 25.4695 12.178 25.4697 12.636C25.4697 12.9016 25.345 13.1378 25.1514 13.2991V14.3909H28.1963C28.6829 14.3911 28.9768 14.9297 28.7139 15.3391L27.0166 17.9768V22.2952H27.0039V28.7815H38.79C41.6934 28.7817 44.0469 31.1358 44.0469 34.0393V40.9426H44.04V45.0012C44.0398 45.486 43.646 45.8792 43.1611 45.8792H36.333C35.8483 45.879 35.4553 45.4859 35.4551 45.0012V40.9426H27.0039V45.0012C27.0039 45.4862 26.61 45.8792 26.125 45.8792H19.2969C18.8121 45.879 18.419 45.4861 18.4189 45.0012V22.2952H16.7783V22.2786C14.7106 22.1857 13.0628 20.4565 13.0625 18.3342C13.0625 16.1523 14.8041 14.3821 16.9531 14.3821C17.037 14.3821 17.1201 14.3856 17.2021 14.3909H21.2412V13.3245C21.0287 13.1634 20.8898 12.9163 20.8896 12.636C20.8899 12.1477 21.3045 11.7543 21.8125 11.7542L21.9062 11.759C22.3706 11.8039 22.7351 12.1781 22.7354 12.636C22.7352 12.9014 22.6115 13.1378 22.418 13.2991V14.3909H23.9746V13.3245C23.7623 13.1634 23.6231 12.9163 23.623 12.636C23.6233 12.1479 24.0382 11.7545 24.5459 11.7542L24.6396 11.759Z" fill="white"/>
</g>
<path d="M384.674 46.3177C381.841 46.3177 379.348 45.7636 377.192 44.6552C375.068 43.5468 373.421 42.0382 372.251 40.1294C371.081 38.1897 370.496 35.9884 370.496 33.5254C370.496 31.0316 371.066 28.8302 372.205 26.9214C373.375 24.9818 374.96 23.4731 376.962 22.3956C378.963 21.2872 381.226 20.733 383.75 20.733C386.182 20.733 388.368 21.2564 390.308 22.3032C392.279 23.3192 393.833 24.797 394.972 26.7367C396.112 28.6455 396.681 30.9392 396.681 33.6177C396.681 33.8948 396.666 34.2181 396.635 34.5876C396.604 34.9262 396.573 35.2495 396.543 35.5574H376.361V31.3548H392.756L389.985 32.6017C389.985 31.3087 389.723 30.1849 389.2 29.2305C388.676 28.2761 387.953 27.5371 387.029 27.0138C386.106 26.4596 385.028 26.1825 383.796 26.1825C382.565 26.1825 381.472 26.4596 380.518 27.0138C379.594 27.5371 378.87 28.2914 378.347 29.2767C377.824 30.2311 377.562 31.3702 377.562 32.6941V33.8025C377.562 35.1571 377.854 36.3579 378.439 37.4047C379.055 38.4207 379.902 39.2057 380.979 39.7599C382.088 40.2833 383.381 40.545 384.859 40.545C386.182 40.545 387.337 40.3449 388.322 39.9446C389.338 39.5444 390.262 38.944 391.093 38.1436L394.926 42.2999C393.787 43.593 392.355 44.5936 390.631 45.3017C388.907 45.9791 386.921 46.3177 384.674 46.3177Z" fill="#2C2C2C"/>
<path d="M384.674 46.3177C381.841 46.3177 379.348 45.7636 377.192 44.6552C375.068 43.5468 373.421 42.0382 372.251 40.1294C371.081 38.1897 370.496 35.9884 370.496 33.5254C370.496 31.0316 371.066 28.8302 372.205 26.9214C373.375 24.9818 374.96 23.4731 376.962 22.3956C378.963 21.2872 381.226 20.733 383.75 20.733C386.182 20.733 388.368 21.2564 390.308 22.3032C392.279 23.3192 393.833 24.797 394.972 26.7367C396.112 28.6455 396.681 30.9392 396.681 33.6177C396.681 33.8948 396.666 34.2181 396.635 34.5876C396.604 34.9262 396.573 35.2495 396.543 35.5574H376.361V31.3548H392.756L389.985 32.6017C389.985 31.3087 389.723 30.1849 389.2 29.2305C388.676 28.2761 387.953 27.5371 387.029 27.0138C386.106 26.4596 385.028 26.1825 383.796 26.1825C382.565 26.1825 381.472 26.4596 380.518 27.0138C379.594 27.5371 378.87 28.2914 378.347 29.2767C377.824 30.2311 377.562 31.3702 377.562 32.6941V33.8025C377.562 35.1571 377.854 36.3579 378.439 37.4047C379.055 38.4207 379.902 39.2057 380.979 39.7599C382.088 40.2833 383.381 40.545 384.859 40.545C386.182 40.545 387.337 40.3449 388.322 39.9446C389.338 39.5444 390.262 38.944 391.093 38.1436L394.926 42.2999C393.787 43.593 392.355 44.5936 390.631 45.3017C388.907 45.9791 386.921 46.3177 384.674 46.3177Z" fill="#3F3D39"/>
<path d="M384.674 46.3177C381.841 46.3177 379.348 45.7636 377.192 44.6552C375.068 43.5468 373.421 42.0382 372.251 40.1294C371.081 38.1897 370.496 35.9884 370.496 33.5254C370.496 31.0316 371.066 28.8302 372.205 26.9214C373.375 24.9818 374.96 23.4731 376.962 22.3956C378.963 21.2872 381.226 20.733 383.75 20.733C386.182 20.733 388.368 21.2564 390.308 22.3032C392.279 23.3192 393.833 24.797 394.972 26.7367C396.112 28.6455 396.681 30.9392 396.681 33.6177C396.681 33.8948 396.666 34.2181 396.635 34.5876C396.604 34.9262 396.573 35.2495 396.543 35.5574H376.361V31.3548H392.756L389.985 32.6017C389.985 31.3087 389.723 30.1849 389.2 29.2305C388.676 28.2761 387.953 27.5371 387.029 27.0138C386.106 26.4596 385.028 26.1825 383.796 26.1825C382.565 26.1825 381.472 26.4596 380.518 27.0138C379.594 27.5371 378.87 28.2914 378.347 29.2767C377.824 30.2311 377.562 31.3702 377.562 32.6941V33.8025C377.562 35.1571 377.854 36.3579 378.439 37.4047C379.055 38.4207 379.902 39.2057 380.979 39.7599C382.088 40.2833 383.381 40.545 384.859 40.545C386.182 40.545 387.337 40.3449 388.322 39.9446C389.338 39.5444 390.262 38.944 391.093 38.1436L394.926 42.2999C393.787 43.593 392.355 44.5936 390.631 45.3017C388.907 45.9791 386.921 46.3177 384.674 46.3177Z" fill="#22201A"/>
<path d="M360.953 46.2868V13.6517H368.188V46.2868H360.953Z" fill="#2C2C2C"/>
<path d="M360.953 46.2868V13.6517H368.188V46.2868H360.953Z" fill="#3F3D39"/>
<path d="M360.953 46.2868V13.6517H368.188V46.2868H360.953Z" fill="#22201A"/>
<path d="M321.547 45.979V21.1332H328.428V28.1529L327.458 26.1209C328.197 24.366 329.382 23.0421 331.014 22.1492C332.646 21.2256 334.632 20.7638 336.972 20.7638V27.414C336.664 27.3832 336.387 27.3678 336.14 27.3678C335.894 27.337 335.632 27.3216 335.355 27.3216C333.385 27.3216 331.784 27.8912 330.552 29.0303C329.352 30.1387 328.751 31.8782 328.751 34.2489V45.979H321.547Z" fill="#2C2C2C"/>
<path d="M321.547 45.979V21.1332H328.428V28.1529L327.458 26.1209C328.197 24.366 329.382 23.0421 331.014 22.1492C332.646 21.2256 334.632 20.7638 336.972 20.7638V27.414C336.664 27.3832 336.387 27.3678 336.14 27.3678C335.894 27.337 335.632 27.3216 335.355 27.3216C333.385 27.3216 331.784 27.8912 330.552 29.0303C329.352 30.1387 328.751 31.8782 328.751 34.2489V45.979H321.547Z" fill="#3F3D39"/>
<path d="M321.547 45.979V21.1332H328.428V28.1529L327.458 26.1209C328.197 24.366 329.382 23.0421 331.014 22.1492C332.646 21.2256 334.632 20.7638 336.972 20.7638V27.414C336.664 27.3832 336.387 27.3678 336.14 27.3678C335.894 27.337 335.632 27.3216 335.355 27.3216C333.385 27.3216 331.784 27.8912 330.552 29.0303C329.352 30.1387 328.751 31.8782 328.751 34.2489V45.979H321.547Z" fill="#22201A"/>
<path d="M301.997 46.3484C299.934 46.3484 298.087 45.9482 296.455 45.1477C294.854 44.3472 293.607 43.1311 292.714 41.4993C291.821 39.8368 291.375 37.7278 291.375 35.1724V21.1332H298.579V34.1103C298.579 36.173 299.01 37.697 299.872 38.6822C300.765 39.6367 302.012 40.1139 303.613 40.1139C304.722 40.1139 305.707 39.883 306.569 39.4212C307.431 38.9286 308.108 38.1896 308.601 37.2044C309.093 36.1884 309.34 34.9261 309.34 33.4175V21.1332H316.544V45.979H309.709V39.1441L310.956 41.1299C310.125 42.854 308.893 44.1625 307.262 45.0553C305.661 45.9174 303.906 46.3484 301.997 46.3484Z" fill="#2C2C2C"/>
<path d="M301.997 46.3484C299.934 46.3484 298.087 45.9482 296.455 45.1477C294.854 44.3472 293.607 43.1311 292.714 41.4993C291.821 39.8368 291.375 37.7278 291.375 35.1724V21.1332H298.579V34.1103C298.579 36.173 299.01 37.697 299.872 38.6822C300.765 39.6367 302.012 40.1139 303.613 40.1139C304.722 40.1139 305.707 39.883 306.569 39.4212C307.431 38.9286 308.108 38.1896 308.601 37.2044C309.093 36.1884 309.34 34.9261 309.34 33.4175V21.1332H316.544V45.979H309.709V39.1441L310.956 41.1299C310.125 42.854 308.893 44.1625 307.262 45.0553C305.661 45.9174 303.906 46.3484 301.997 46.3484Z" fill="#3F3D39"/>
<path d="M301.997 46.3484C299.934 46.3484 298.087 45.9482 296.455 45.1477C294.854 44.3472 293.607 43.1311 292.714 41.4993C291.821 39.8368 291.375 37.7278 291.375 35.1724V21.1332H298.579V34.1103C298.579 36.173 299.01 37.697 299.872 38.6822C300.765 39.6367 302.012 40.1139 303.613 40.1139C304.722 40.1139 305.707 39.883 306.569 39.4212C307.431 38.9286 308.108 38.1896 308.601 37.2044C309.093 36.1884 309.34 34.9261 309.34 33.4175V21.1332H316.544V45.979H309.709V39.1441L310.956 41.1299C310.125 42.854 308.893 44.1625 307.262 45.0553C305.661 45.9174 303.906 46.3484 301.997 46.3484Z" fill="#22201A"/>
<path d="M246.537 46.3485C243.705 46.3485 241.211 45.7943 239.056 44.686C236.931 43.5776 235.284 42.069 234.114 40.1601C232.944 38.2205 232.359 36.0192 232.359 33.5561C232.359 31.0623 232.929 28.861 234.068 26.9522C235.238 25.0125 236.824 23.5039 238.825 22.4263C240.826 21.318 243.089 20.7638 245.614 20.7638C248.046 20.7638 250.232 21.2872 252.171 22.334C254.142 23.35 255.697 24.8278 256.836 26.7674C257.975 28.6763 258.544 30.97 258.544 33.6485C258.544 33.9256 258.529 34.2489 258.498 34.6183C258.467 34.957 258.437 35.2803 258.406 35.5881H238.224V31.3856H254.619L251.848 32.6325C251.848 31.3394 251.586 30.2157 251.063 29.2612C250.54 28.3068 249.816 27.5679 248.892 27.0445C247.969 26.4903 246.891 26.2132 245.66 26.2132C244.428 26.2132 243.335 26.4903 242.381 27.0445C241.457 27.5679 240.734 28.3222 240.21 29.3074C239.687 30.2618 239.425 31.401 239.425 32.7249V33.8332C239.425 35.1879 239.718 36.3886 240.303 37.4354C240.918 38.4514 241.765 39.2365 242.843 39.7907C243.951 40.3141 245.244 40.5758 246.722 40.5758C248.046 40.5758 249.2 40.3757 250.186 39.9754C251.202 39.5752 252.125 38.9748 252.956 38.1743L256.79 42.3307C255.65 43.6238 254.219 44.6244 252.495 45.3325C250.771 46.0098 248.785 46.3485 246.537 46.3485Z" fill="#2C2C2C"/>
<path d="M246.537 46.3485C243.705 46.3485 241.211 45.7943 239.056 44.686C236.931 43.5776 235.284 42.069 234.114 40.1601C232.944 38.2205 232.359 36.0192 232.359 33.5561C232.359 31.0623 232.929 28.861 234.068 26.9522C235.238 25.0125 236.824 23.5039 238.825 22.4263C240.826 21.318 243.089 20.7638 245.614 20.7638C248.046 20.7638 250.232 21.2872 252.171 22.334C254.142 23.35 255.697 24.8278 256.836 26.7674C257.975 28.6763 258.544 30.97 258.544 33.6485C258.544 33.9256 258.529 34.2489 258.498 34.6183C258.467 34.957 258.437 35.2803 258.406 35.5881H238.224V31.3856H254.619L251.848 32.6325C251.848 31.3394 251.586 30.2157 251.063 29.2612C250.54 28.3068 249.816 27.5679 248.892 27.0445C247.969 26.4903 246.891 26.2132 245.66 26.2132C244.428 26.2132 243.335 26.4903 242.381 27.0445C241.457 27.5679 240.734 28.3222 240.21 29.3074C239.687 30.2618 239.425 31.401 239.425 32.7249V33.8332C239.425 35.1879 239.718 36.3886 240.303 37.4354C240.918 38.4514 241.765 39.2365 242.843 39.7907C243.951 40.3141 245.244 40.5758 246.722 40.5758C248.046 40.5758 249.2 40.3757 250.186 39.9754C251.202 39.5752 252.125 38.9748 252.956 38.1743L256.79 42.3307C255.65 43.6238 254.219 44.6244 252.495 45.3325C250.771 46.0098 248.785 46.3485 246.537 46.3485Z" fill="#3F3D39"/>
<path d="M246.537 46.3485C243.705 46.3485 241.211 45.7943 239.056 44.686C236.931 43.5776 235.284 42.069 234.114 40.1601C232.944 38.2205 232.359 36.0192 232.359 33.5561C232.359 31.0623 232.929 28.861 234.068 26.9522C235.238 25.0125 236.824 23.5039 238.825 22.4263C240.826 21.318 243.089 20.7638 245.614 20.7638C248.046 20.7638 250.232 21.2872 252.171 22.334C254.142 23.35 255.697 24.8278 256.836 26.7674C257.975 28.6763 258.544 30.97 258.544 33.6485C258.544 33.9256 258.529 34.2489 258.498 34.6183C258.467 34.957 258.437 35.2803 258.406 35.5881H238.224V31.3856H254.619L251.848 32.6325C251.848 31.3394 251.586 30.2157 251.063 29.2612C250.54 28.3068 249.816 27.5679 248.892 27.0445C247.969 26.4903 246.891 26.2132 245.66 26.2132C244.428 26.2132 243.335 26.4903 242.381 27.0445C241.457 27.5679 240.734 28.3222 240.21 29.3074C239.687 30.2618 239.425 31.401 239.425 32.7249V33.8332C239.425 35.1879 239.718 36.3886 240.303 37.4354C240.918 38.4514 241.765 39.2365 242.843 39.7907C243.951 40.3141 245.244 40.5758 246.722 40.5758C248.046 40.5758 249.2 40.3757 250.186 39.9754C251.202 39.5752 252.125 38.9748 252.956 38.1743L256.79 42.3307C255.65 43.6238 254.219 44.6244 252.495 45.3325C250.771 46.0098 248.785 46.3485 246.537 46.3485Z" fill="#22201A"/>
<path d="M214.402 45.9791V20.733H221.283V28.1529L220.314 26.1209C221.053 24.366 222.238 23.0422 223.87 22.1493C225.501 21.2257 227.487 20.7639 229.827 20.7639V27.414C229.519 27.3832 229.242 27.3678 228.996 27.3678C228.749 27.3371 228.488 27.3217 228.211 27.3217C226.24 27.3217 224.639 27.8912 223.408 29.0304C222.207 30.1387 221.607 31.8783 221.607 34.2489V45.9791H214.402Z" fill="#2C2C2C"/>
<path d="M214.402 45.9791V20.733H221.283V28.1529L220.314 26.1209C221.053 24.366 222.238 23.0422 223.87 22.1493C225.501 21.2257 227.487 20.7639 229.827 20.7639V27.414C229.519 27.3832 229.242 27.3678 228.996 27.3678C228.749 27.3371 228.488 27.3217 228.211 27.3217C226.24 27.3217 224.639 27.8912 223.408 29.0304C222.207 30.1387 221.607 31.8783 221.607 34.2489V45.9791H214.402Z" fill="#3F3D39"/>
<path d="M214.402 45.9791V20.733H221.283V28.1529L220.314 26.1209C221.053 24.366 222.238 23.0422 223.87 22.1493C225.501 21.2257 227.487 20.7639 229.827 20.7639V27.414C229.519 27.3832 229.242 27.3678 228.996 27.3678C228.749 27.3371 228.488 27.3217 228.211 27.3217C226.24 27.3217 224.639 27.8912 223.408 29.0304C222.207 30.1387 221.607 31.8783 221.607 34.2489V45.9791H214.402Z" fill="#22201A"/>
<path d="M194.852 46.3485C192.789 46.3485 190.942 45.9482 189.31 45.1477C187.709 44.3473 186.463 43.1311 185.57 41.4994C184.677 39.8368 184.23 37.7279 184.23 35.1725V20.733H191.435V34.1103C191.435 36.1731 191.866 37.6971 192.728 38.6823C193.621 39.6367 194.868 40.1139 196.469 40.1139C197.577 40.1139 198.562 39.883 199.424 39.4212C200.286 38.9286 200.964 38.1897 201.456 37.2045C201.949 36.1885 202.195 34.9262 202.195 33.4176V20.733H209.4V45.979H202.565V39.1441L203.812 41.1299C202.98 42.854 201.749 44.1625 200.117 45.0554C198.516 45.9174 196.761 46.3485 194.852 46.3485Z" fill="#2C2C2C"/>
<path d="M194.852 46.3485C192.789 46.3485 190.942 45.9482 189.31 45.1477C187.709 44.3473 186.463 43.1311 185.57 41.4994C184.677 39.8368 184.23 37.7279 184.23 35.1725V20.733H191.435V34.1103C191.435 36.1731 191.866 37.6971 192.728 38.6823C193.621 39.6367 194.868 40.1139 196.469 40.1139C197.577 40.1139 198.562 39.883 199.424 39.4212C200.286 38.9286 200.964 38.1897 201.456 37.2045C201.949 36.1885 202.195 34.9262 202.195 33.4176V20.733H209.4V45.979H202.565V39.1441L203.812 41.1299C202.98 42.854 201.749 44.1625 200.117 45.0554C198.516 45.9174 196.761 46.3485 194.852 46.3485Z" fill="#3F3D39"/>
<path d="M194.852 46.3485C192.789 46.3485 190.942 45.9482 189.31 45.1477C187.709 44.3473 186.463 43.1311 185.57 41.4994C184.677 39.8368 184.23 37.7279 184.23 35.1725V20.733H191.435V34.1103C191.435 36.1731 191.866 37.6971 192.728 38.6823C193.621 39.6367 194.868 40.1139 196.469 40.1139C197.577 40.1139 198.562 39.883 199.424 39.4212C200.286 38.9286 200.964 38.1897 201.456 37.2045C201.949 36.1885 202.195 34.9262 202.195 33.4176V20.733H209.4V45.979H202.565V39.1441L203.812 41.1299C202.98 42.854 201.749 44.1625 200.117 45.0554C198.516 45.9174 196.761 46.3485 194.852 46.3485Z" fill="#22201A"/>
<path d="M177.084 46.3486C174.16 46.3486 171.881 45.6097 170.249 44.1319C168.618 42.6233 167.802 40.3912 167.802 37.4355V15.807H175.006V37.3432C175.006 38.3899 175.283 39.2058 175.837 39.7908C176.392 40.345 177.146 40.6221 178.1 40.6221C179.24 40.6221 180.209 40.3142 181.01 39.6984L182.949 44.7784C182.211 45.3018 181.318 45.7021 180.271 45.9792C179.255 46.2255 178.193 46.3486 177.084 46.3486ZM163.969 26.2749V20.7331L179.615 20.7331V26.2749L163.969 26.2749Z" fill="#2C2C2C"/>
<path d="M177.084 46.3486C174.16 46.3486 171.881 45.6097 170.249 44.1319C168.618 42.6233 167.802 40.3912 167.802 37.4355V15.807H175.006V37.3432C175.006 38.3899 175.283 39.2058 175.837 39.7908C176.392 40.345 177.146 40.6221 178.1 40.6221C179.24 40.6221 180.209 40.3142 181.01 39.6984L182.949 44.7784C182.211 45.3018 181.318 45.7021 180.271 45.9792C179.255 46.2255 178.193 46.3486 177.084 46.3486ZM163.969 26.2749V20.7331L179.615 20.7331V26.2749L163.969 26.2749Z" fill="#3F3D39"/>
<path d="M177.084 46.3486C174.16 46.3486 171.881 45.6097 170.249 44.1319C168.618 42.6233 167.802 40.3912 167.802 37.4355V15.807H175.006V37.3432C175.006 38.3899 175.283 39.2058 175.837 39.7908C176.392 40.345 177.146 40.6221 178.1 40.6221C179.24 40.6221 180.209 40.3142 181.01 39.6984L182.949 44.7784C182.211 45.3018 181.318 45.7021 180.271 45.9792C179.255 46.2255 178.193 46.3486 177.084 46.3486ZM163.969 26.2749V20.7331L179.615 20.7331V26.2749L163.969 26.2749Z" fill="#22201A"/>
<path d="M284.17 46.3486C281.245 46.3486 278.967 45.6097 277.335 44.1319C275.704 42.6233 274.888 40.3912 274.888 37.4355V15.807H282.092V37.3432C282.092 38.3899 282.369 39.2058 282.923 39.7908C283.478 40.345 284.232 40.6221 285.186 40.6221C286.325 40.6221 287.295 40.3142 288.096 39.6984L290.035 44.7784C289.296 45.3018 288.404 45.7021 287.357 45.9792C286.341 46.2255 285.279 46.3486 284.17 46.3486ZM271.055 26.2749V20.7331L286.701 20.7331V26.2749L271.055 26.2749Z" fill="#2C2C2C"/>
<path d="M284.17 46.3486C281.245 46.3486 278.967 45.6097 277.335 44.1319C275.704 42.6233 274.888 40.3912 274.888 37.4355V15.807H282.092V37.3432C282.092 38.3899 282.369 39.2058 282.923 39.7908C283.478 40.345 284.232 40.6221 285.186 40.6221C286.325 40.6221 287.295 40.3142 288.096 39.6984L290.035 44.7784C289.296 45.3018 288.404 45.7021 287.357 45.9792C286.341 46.2255 285.279 46.3486 284.17 46.3486ZM271.055 26.2749V20.7331L286.701 20.7331V26.2749L271.055 26.2749Z" fill="#3F3D39"/>
<path d="M284.17 46.3486C281.245 46.3486 278.967 45.6097 277.335 44.1319C275.704 42.6233 274.888 40.3912 274.888 37.4355V15.807H282.092V37.3432C282.092 38.3899 282.369 39.2058 282.923 39.7908C283.478 40.345 284.232 40.6221 285.186 40.6221C286.325 40.6221 287.295 40.3142 288.096 39.6984L290.035 44.7784C289.296 45.3018 288.404 45.7021 287.357 45.9792C286.341 46.2255 285.279 46.3486 284.17 46.3486ZM271.055 26.2749V20.7331L286.701 20.7331V26.2749L271.055 26.2749Z" fill="#22201A"/>
<path d="M352.518 46.3486C349.593 46.3486 347.315 45.6097 345.683 44.1319C344.051 42.6233 343.235 40.3912 343.235 37.4355V15.807H350.44V37.3432C350.44 38.3899 350.717 39.2058 351.271 39.7908C351.825 40.345 352.58 40.6221 353.534 40.6221C354.673 40.6221 355.643 40.3142 356.443 39.6984L358.383 44.7784C357.644 45.3018 356.751 45.7021 355.705 45.9792C354.689 46.2255 353.626 46.3486 352.518 46.3486ZM339.402 26.2749V20.7331L355.049 20.7331V26.2749L339.402 26.2749Z" fill="#2C2C2C"/>
<path d="M352.518 46.3486C349.593 46.3486 347.315 45.6097 345.683 44.1319C344.051 42.6233 343.235 40.3912 343.235 37.4355V15.807H350.44V37.3432C350.44 38.3899 350.717 39.2058 351.271 39.7908C351.825 40.345 352.58 40.6221 353.534 40.6221C354.673 40.6221 355.643 40.3142 356.443 39.6984L358.383 44.7784C357.644 45.3018 356.751 45.7021 355.705 45.9792C354.689 46.2255 353.626 46.3486 352.518 46.3486ZM339.402 26.2749V20.7331L355.049 20.7331V26.2749L339.402 26.2749Z" fill="#3F3D39"/>
<path d="M352.518 46.3486C349.593 46.3486 347.315 45.6097 345.683 44.1319C344.051 42.6233 343.235 40.3912 343.235 37.4355V15.807H350.44V37.3432C350.44 38.3899 350.717 39.2058 351.271 39.7908C351.825 40.345 352.58 40.6221 353.534 40.6221C354.673 40.6221 355.643 40.3142 356.443 39.6984L358.383 44.7784C357.644 45.3018 356.751 45.7021 355.705 45.9792C354.689 46.2255 353.626 46.3486 352.518 46.3486ZM339.402 26.2749V20.7331L355.049 20.7331V26.2749L339.402 26.2749Z" fill="#22201A"/>
<path d="M150.979 46.3485C148.855 46.3485 146.807 46.1022 144.837 45.6096C143.138 45.1512 141.746 44.5983 140.662 43.951C140.402 43.7961 140.312 43.4683 140.44 43.1941L142.327 39.1284C142.483 38.7931 142.897 38.6704 143.22 38.849C144.222 39.4016 145.361 39.8694 146.638 40.2525C148.208 40.6835 149.748 40.899 151.256 40.899C152.919 40.899 154.089 40.6989 154.766 40.2987C155.474 39.8984 155.828 39.3443 155.828 38.6361C155.828 38.0512 155.551 37.6201 154.997 37.343C154.474 37.0352 153.765 36.8043 152.873 36.6503C151.98 36.4964 150.994 36.3424 149.917 36.1885C148.87 36.0346 147.808 35.8344 146.73 35.5881C145.653 35.3111 144.668 34.9108 143.775 34.3874C142.882 33.864 142.158 33.1559 141.604 32.2631C141.081 31.3702 140.819 30.2157 140.819 28.7994C140.819 27.2292 141.266 25.8438 142.158 24.6431C143.082 23.4423 144.406 22.5033 146.13 21.826C147.854 21.1179 149.917 20.7638 152.318 20.7638C154.012 20.7638 155.736 20.9485 157.491 21.318C159.013 21.6384 160.315 22.0862 161.397 22.6613C161.675 22.809 161.777 23.1506 161.643 23.4357L159.764 27.4474C159.61 27.7762 159.207 27.8997 158.885 27.731C157.877 27.2022 156.858 26.8348 155.828 26.6289C154.627 26.3518 153.458 26.2132 152.318 26.2132C150.717 26.2132 149.547 26.4288 148.809 26.8598C148.07 27.2908 147.7 27.845 147.7 28.5223C147.7 29.1381 147.962 29.5999 148.485 29.9078C149.039 30.2157 149.763 30.462 150.656 30.6467C151.549 30.8314 152.518 31.0008 153.565 31.1547C154.643 31.2778 155.72 31.478 156.798 31.7551C157.876 32.0321 158.845 32.4324 159.707 32.9558C160.6 33.4484 161.324 34.1411 161.878 35.034C162.432 35.896 162.709 37.0352 162.709 38.4514C162.709 39.9908 162.247 41.3609 161.324 42.5616C160.4 43.7315 159.061 44.6552 157.306 45.3325C155.582 46.0098 153.473 46.3485 150.979 46.3485Z" fill="#2C2C2C"/>
<path d="M150.979 46.3485C148.855 46.3485 146.807 46.1022 144.837 45.6096C143.138 45.1512 141.746 44.5983 140.662 43.951C140.402 43.7961 140.312 43.4683 140.44 43.1941L142.327 39.1284C142.483 38.7931 142.897 38.6704 143.22 38.849C144.222 39.4016 145.361 39.8694 146.638 40.2525C148.208 40.6835 149.748 40.899 151.256 40.899C152.919 40.899 154.089 40.6989 154.766 40.2987C155.474 39.8984 155.828 39.3443 155.828 38.6361C155.828 38.0512 155.551 37.6201 154.997 37.343C154.474 37.0352 153.765 36.8043 152.873 36.6503C151.98 36.4964 150.994 36.3424 149.917 36.1885C148.87 36.0346 147.808 35.8344 146.73 35.5881C145.653 35.3111 144.668 34.9108 143.775 34.3874C142.882 33.864 142.158 33.1559 141.604 32.2631C141.081 31.3702 140.819 30.2157 140.819 28.7994C140.819 27.2292 141.266 25.8438 142.158 24.6431C143.082 23.4423 144.406 22.5033 146.13 21.826C147.854 21.1179 149.917 20.7638 152.318 20.7638C154.012 20.7638 155.736 20.9485 157.491 21.318C159.013 21.6384 160.315 22.0862 161.397 22.6613C161.675 22.809 161.777 23.1506 161.643 23.4357L159.764 27.4474C159.61 27.7762 159.207 27.8997 158.885 27.731C157.877 27.2022 156.858 26.8348 155.828 26.6289C154.627 26.3518 153.458 26.2132 152.318 26.2132C150.717 26.2132 149.547 26.4288 148.809 26.8598C148.07 27.2908 147.7 27.845 147.7 28.5223C147.7 29.1381 147.962 29.5999 148.485 29.9078C149.039 30.2157 149.763 30.462 150.656 30.6467C151.549 30.8314 152.518 31.0008 153.565 31.1547C154.643 31.2778 155.72 31.478 156.798 31.7551C157.876 32.0321 158.845 32.4324 159.707 32.9558C160.6 33.4484 161.324 34.1411 161.878 35.034C162.432 35.896 162.709 37.0352 162.709 38.4514C162.709 39.9908 162.247 41.3609 161.324 42.5616C160.4 43.7315 159.061 44.6552 157.306 45.3325C155.582 46.0098 153.473 46.3485 150.979 46.3485Z" fill="#3F3D39"/>
<path d="M150.979 46.3485C148.855 46.3485 146.807 46.1022 144.837 45.6096C143.138 45.1512 141.746 44.5983 140.662 43.951C140.402 43.7961 140.312 43.4683 140.44 43.1941L142.327 39.1284C142.483 38.7931 142.897 38.6704 143.22 38.849C144.222 39.4016 145.361 39.8694 146.638 40.2525C148.208 40.6835 149.748 40.899 151.256 40.899C152.919 40.899 154.089 40.6989 154.766 40.2987C155.474 39.8984 155.828 39.3443 155.828 38.6361C155.828 38.0512 155.551 37.6201 154.997 37.343C154.474 37.0352 153.765 36.8043 152.873 36.6503C151.98 36.4964 150.994 36.3424 149.917 36.1885C148.87 36.0346 147.808 35.8344 146.73 35.5881C145.653 35.3111 144.668 34.9108 143.775 34.3874C142.882 33.864 142.158 33.1559 141.604 32.2631C141.081 31.3702 140.819 30.2157 140.819 28.7994C140.819 27.2292 141.266 25.8438 142.158 24.6431C143.082 23.4423 144.406 22.5033 146.13 21.826C147.854 21.1179 149.917 20.7638 152.318 20.7638C154.012 20.7638 155.736 20.9485 157.491 21.318C159.013 21.6384 160.315 22.0862 161.397 22.6613C161.675 22.809 161.777 23.1506 161.643 23.4357L159.764 27.4474C159.61 27.7762 159.207 27.8997 158.885 27.731C157.877 27.2022 156.858 26.8348 155.828 26.6289C154.627 26.3518 153.458 26.2132 152.318 26.2132C150.717 26.2132 149.547 26.4288 148.809 26.8598C148.07 27.2908 147.7 27.845 147.7 28.5223C147.7 29.1381 147.962 29.5999 148.485 29.9078C149.039 30.2157 149.763 30.462 150.656 30.6467C151.549 30.8314 152.518 31.0008 153.565 31.1547C154.643 31.2778 155.72 31.478 156.798 31.7551C157.876 32.0321 158.845 32.4324 159.707 32.9558C160.6 33.4484 161.324 34.1411 161.878 35.034C162.432 35.896 162.709 37.0352 162.709 38.4514C162.709 39.9908 162.247 41.3609 161.324 42.5616C160.4 43.7315 159.061 44.6552 157.306 45.3325C155.582 46.0098 153.473 46.3485 150.979 46.3485Z" fill="#22201A"/>
<path d="M124.412 46.3485C121.764 46.3485 119.409 45.7943 117.346 44.686C115.314 43.5776 113.698 42.069 112.497 40.1601C111.327 38.2205 110.742 36.0192 110.742 33.5561C110.742 31.0623 111.327 28.861 112.497 26.9522C113.698 25.0125 115.314 23.5039 117.346 22.4263C119.409 21.318 121.764 20.7638 124.412 20.7638C127.029 20.7638 129.369 21.318 131.432 22.4263C133.494 23.5039 135.111 24.9971 136.281 26.906C137.451 28.8148 138.036 31.0315 138.036 33.5561C138.036 36.0192 137.451 38.2205 136.281 40.1601C135.111 42.069 133.494 43.5776 131.432 44.686C129.369 45.7943 127.029 46.3485 124.412 46.3485ZM124.412 40.4372C125.613 40.4372 126.69 40.1601 127.645 39.606C128.599 39.0518 129.353 38.2667 129.908 37.2507C130.462 36.2039 130.739 34.9724 130.739 33.5561C130.739 32.1091 130.462 30.8776 129.908 29.8616C129.353 28.8456 128.599 28.0605 127.645 27.5063C126.69 26.9522 125.613 26.6751 124.412 26.6751C123.211 26.6751 122.134 26.9522 121.179 27.5063C120.225 28.0605 119.455 28.8456 118.87 29.8616C118.316 30.8776 118.039 32.1091 118.039 33.5561C118.039 34.9724 118.316 36.2039 118.87 37.2507C119.455 38.2667 120.225 39.0518 121.179 39.606C122.134 40.1601 123.211 40.4372 124.412 40.4372Z" fill="#2C2C2C"/>
<path d="M124.412 46.3485C121.764 46.3485 119.409 45.7943 117.346 44.686C115.314 43.5776 113.698 42.069 112.497 40.1601C111.327 38.2205 110.742 36.0192 110.742 33.5561C110.742 31.0623 111.327 28.861 112.497 26.9522C113.698 25.0125 115.314 23.5039 117.346 22.4263C119.409 21.318 121.764 20.7638 124.412 20.7638C127.029 20.7638 129.369 21.318 131.432 22.4263C133.494 23.5039 135.111 24.9971 136.281 26.906C137.451 28.8148 138.036 31.0315 138.036 33.5561C138.036 36.0192 137.451 38.2205 136.281 40.1601C135.111 42.069 133.494 43.5776 131.432 44.686C129.369 45.7943 127.029 46.3485 124.412 46.3485ZM124.412 40.4372C125.613 40.4372 126.69 40.1601 127.645 39.606C128.599 39.0518 129.353 38.2667 129.908 37.2507C130.462 36.2039 130.739 34.9724 130.739 33.5561C130.739 32.1091 130.462 30.8776 129.908 29.8616C129.353 28.8456 128.599 28.0605 127.645 27.5063C126.69 26.9522 125.613 26.6751 124.412 26.6751C123.211 26.6751 122.134 26.9522 121.179 27.5063C120.225 28.0605 119.455 28.8456 118.87 29.8616C118.316 30.8776 118.039 32.1091 118.039 33.5561C118.039 34.9724 118.316 36.2039 118.87 37.2507C119.455 38.2667 120.225 39.0518 121.179 39.606C122.134 40.1601 123.211 40.4372 124.412 40.4372Z" fill="#3F3D39"/>
<path d="M124.412 46.3485C121.764 46.3485 119.409 45.7943 117.346 44.686C115.314 43.5776 113.698 42.069 112.497 40.1601C111.327 38.2205 110.742 36.0192 110.742 33.5561C110.742 31.0623 111.327 28.861 112.497 26.9522C113.698 25.0125 115.314 23.5039 117.346 22.4263C119.409 21.318 121.764 20.7638 124.412 20.7638C127.029 20.7638 129.369 21.318 131.432 22.4263C133.494 23.5039 135.111 24.9971 136.281 26.906C137.451 28.8148 138.036 31.0315 138.036 33.5561C138.036 36.0192 137.451 38.2205 136.281 40.1601C135.111 42.069 133.494 43.5776 131.432 44.686C129.369 45.7943 127.029 46.3485 124.412 46.3485ZM124.412 40.4372C125.613 40.4372 126.69 40.1601 127.645 39.606C128.599 39.0518 129.353 38.2667 129.908 37.2507C130.462 36.2039 130.739 34.9724 130.739 33.5561C130.739 32.1091 130.462 30.8776 129.908 29.8616C129.353 28.8456 128.599 28.0605 127.645 27.5063C126.69 26.9522 125.613 26.6751 124.412 26.6751C123.211 26.6751 122.134 26.9522 121.179 27.5063C120.225 28.0605 119.455 28.8456 118.87 29.8616C118.316 30.8776 118.039 32.1091 118.039 33.5561C118.039 34.9724 118.316 36.2039 118.87 37.2507C119.455 38.2667 120.225 39.0518 121.179 39.606C122.134 40.1601 123.211 40.4372 124.412 40.4372Z" fill="#22201A"/>
<path d="M80 45.9775V13.7903H93.9931C96.8871 13.7903 99.3809 14.2675 101.475 15.2219C103.568 16.1456 105.184 17.4848 106.324 19.2397C107.463 20.9946 108.032 23.0882 108.032 25.5205C108.032 27.9219 107.463 30.0001 106.324 31.755C105.184 33.5099 103.568 34.8646 101.475 35.819C99.3809 36.7426 96.8871 37.2044 93.9931 37.2044H84.1564L87.4814 33.8332V45.9775H80ZM87.4814 34.6644L84.1564 31.1084H93.5774C95.8865 31.1084 97.6106 30.6158 98.7498 29.6306C99.8889 28.6454 100.459 27.2754 100.459 25.5205C100.459 23.7348 99.8889 22.3493 98.7498 21.3641C97.6106 20.3789 95.8865 19.8863 93.5774 19.8863H84.1564L87.4814 16.3303V34.6644Z" fill="#2C2C2C"/>
<path d="M80 45.9775V13.7903H93.9931C96.8871 13.7903 99.3809 14.2675 101.475 15.2219C103.568 16.1456 105.184 17.4848 106.324 19.2397C107.463 20.9946 108.032 23.0882 108.032 25.5205C108.032 27.9219 107.463 30.0001 106.324 31.755C105.184 33.5099 103.568 34.8646 101.475 35.819C99.3809 36.7426 96.8871 37.2044 93.9931 37.2044H84.1564L87.4814 33.8332V45.9775H80ZM87.4814 34.6644L84.1564 31.1084H93.5774C95.8865 31.1084 97.6106 30.6158 98.7498 29.6306C99.8889 28.6454 100.459 27.2754 100.459 25.5205C100.459 23.7348 99.8889 22.3493 98.7498 21.3641C97.6106 20.3789 95.8865 19.8863 93.5774 19.8863H84.1564L87.4814 16.3303V34.6644Z" fill="#3F3D39"/>
<path d="M80 45.9775V13.7903H93.9931C96.8871 13.7903 99.3809 14.2675 101.475 15.2219C103.568 16.1456 105.184 17.4848 106.324 19.2397C107.463 20.9946 108.032 23.0882 108.032 25.5205C108.032 27.9219 107.463 30.0001 106.324 31.755C105.184 33.5099 103.568 34.8646 101.475 35.819C99.3809 36.7426 96.8871 37.2044 93.9931 37.2044H84.1564L87.4814 33.8332V45.9775H80ZM87.4814 34.6644L84.1564 31.1084H93.5774C95.8865 31.1084 97.6106 30.6158 98.7498 29.6306C99.8889 28.6454 100.459 27.2754 100.459 25.5205C100.459 23.7348 99.8889 22.3493 98.7498 21.3641C97.6106 20.3789 95.8865 19.8863 93.5774 19.8863H84.1564L87.4814 16.3303V34.6644Z" fill="#22201A"/>
<defs>
<linearGradient id="paint0_linear_6208_41013" x1="30" y1="0" x2="30" y2="60" gradientUnits="userSpaceOnUse">
<stop stop-color="#FFD400"/>
<stop offset="0.5" stop-color="#FFC800"/>
<stop offset="1" stop-color="#FFB700"/>
</linearGradient>
<clipPath id="clip0_6208_41013">
<rect width="60" height="60" fill="white"/>
</clipPath>
</defs>
</svg>
