<svg width="229" height="60" viewBox="0 0 229 60" fill="none" xmlns="http://www.w3.org/2000/svg">
<g clip-path="url(#clip0_6208_40889)">
<rect width="60" height="60" rx="12.6667" fill="url(#paint0_linear_6208_40889)"/>
<path d="M24.6396 11.759C25.1041 11.8039 25.4695 12.178 25.4697 12.636C25.4697 12.9016 25.345 13.1378 25.1514 13.2991V14.3909H28.1963C28.6829 14.3911 28.9768 14.9297 28.7139 15.3391L27.0166 17.9768V22.2952H27.0039V28.7815H38.79C41.6934 28.7817 44.0469 31.1358 44.0469 34.0393V40.9426H44.04V45.0012C44.0398 45.486 43.646 45.8792 43.1611 45.8792H36.333C35.8483 45.879 35.4553 45.4859 35.4551 45.0012V40.9426H27.0039V45.0012C27.0039 45.4862 26.61 45.8792 26.125 45.8792H19.2969C18.8121 45.879 18.419 45.4861 18.4189 45.0012V22.2952H16.7783V22.2786C14.7106 22.1857 13.0628 20.4565 13.0625 18.3342C13.0625 16.1523 14.8041 14.3821 16.9531 14.3821C17.037 14.3821 17.1201 14.3856 17.2021 14.3909H21.2412V13.3245C21.0287 13.1634 20.8898 12.9163 20.8896 12.636C20.8899 12.1477 21.3045 11.7543 21.8125 11.7542L21.9062 11.759C22.3706 11.8039 22.7351 12.1781 22.7354 12.636C22.7352 12.9014 22.6115 13.1378 22.418 13.2991V14.3909H23.9746V13.3245C23.7623 13.1634 23.6231 12.9163 23.623 12.636C23.6233 12.1479 24.0382 11.7545 24.5459 11.7542L24.6396 11.759Z" fill="white"/>
</g>
<path d="M203.083 42.3353H228.939V48.141H197.277V36.2386H203.083V42.3353ZM228.94 37.8021H223.094V11.5619H228.94V37.8021ZM218.78 18.2396H218.778V20.5619H218.78V26.3676H202.232V26.9486C202.232 27.9105 203.013 28.6906 203.975 28.6908H218.78V34.4965H203.975C199.806 34.4963 196.426 31.1172 196.426 26.9486V20.5619H212.973V18.2396H196.426V12.433H218.78V18.2396Z" fill="#3F3D39"/>
<path d="M203.083 42.3353H228.939V48.141H197.277V36.2386H203.083V42.3353ZM228.94 37.8021H223.094V11.5619H228.94V37.8021ZM218.78 18.2396H218.778V20.5619H218.78V26.3676H202.232V26.9486C202.232 27.9105 203.013 28.6906 203.975 28.6908H218.78V34.4965H203.975C199.806 34.4963 196.426 31.1172 196.426 26.9486V20.5619H212.973V18.2396H196.426V12.433H218.78V18.2396Z" fill="#22201A"/>
<path d="M156.201 37.6H141.37V48.2953H135.666V37.6H119.551V31.8959H156.201V37.6ZM129.227 15.5052H146.52V11.5619H151.92V22.4135C151.92 26.2135 148.777 29.2943 144.899 29.2943H130.847C126.97 29.2943 123.826 26.2135 123.826 22.4135V11.5619H129.227V15.5052ZM129.227 22.4135C129.227 23.2902 129.952 24.0013 130.847 24.0013H144.899C145.794 24.0013 146.519 23.2902 146.52 22.4135V20.8373H129.227V22.4135Z" fill="#3F3D39"/>
<path d="M156.201 37.6H141.37V48.2953H135.666V37.6H119.551V31.8959H156.201V37.6ZM129.227 15.5052H146.52V11.5619H151.92V22.4135C151.92 26.2135 148.777 29.2943 144.899 29.2943H130.847C126.97 29.2943 123.826 26.2135 123.826 22.4135V11.5619H129.227V15.5052ZM129.227 22.4135C129.227 23.2902 129.952 24.0013 130.847 24.0013H144.899C145.794 24.0013 146.519 23.2902 146.52 22.4135V20.8373H129.227V22.4135Z" fill="#22201A"/>
<path d="M114.56 48.4364H108.855V28.0448H103.723V21.913H108.855V11.6434H114.56V48.4364Z" fill="#3F3D39"/>
<path d="M114.56 48.4364H108.855V28.0448H103.723V21.913H108.855V11.6434H114.56V48.4364Z" fill="#22201A"/>
<path d="M100.837 21.9045C100.837 30.5727 93.8098 37.5998 85.1416 37.5999H80V32.1877H85.1416C90.8208 32.1877 95.4246 27.5836 95.4248 21.9045V17.845H80V12.4329H100.837V21.9045Z" fill="#3F3D39"/>
<path d="M100.837 21.9045C100.837 30.5727 93.8098 37.5998 85.1416 37.5999H80V32.1877H85.1416C90.8208 32.1877 95.4246 27.5836 95.4248 21.9045V17.845H80V12.4329H100.837V21.9045Z" fill="#22201A"/>
<path d="M181.317 21.9045C181.317 30.5727 174.29 37.5998 165.622 37.5999H160.48V32.1877H165.622C171.301 32.1877 175.905 27.5836 175.905 21.9045V17.845H160.48V12.4329H181.317V21.9045Z" fill="#3F3D39"/>
<path d="M181.317 21.9045C181.317 30.5727 174.29 37.5998 165.622 37.5999H160.48V32.1877H165.622C171.301 32.1877 175.905 27.5836 175.905 21.9045V17.845H160.48V12.4329H181.317V21.9045Z" fill="#22201A"/>
<rect x="185.578" y="48.4381" width="36.7932" height="5.70437" transform="rotate(-90 185.578 48.4381)" fill="#3F3D39"/>
<rect x="185.578" y="48.4381" width="36.7932" height="5.70437" transform="rotate(-90 185.578 48.4381)" fill="#22201A"/>
<defs>
<linearGradient id="paint0_linear_6208_40889" x1="30" y1="0" x2="30" y2="60" gradientUnits="userSpaceOnUse">
<stop stop-color="#FFD400"/>
<stop offset="0.5" stop-color="#FFC800"/>
<stop offset="1" stop-color="#FFB700"/>
</linearGradient>
<clipPath id="clip0_6208_40889">
<rect width="60" height="60" fill="white"/>
</clipPath>
</defs>
</svg>
